<?xml version="1.0" encoding="UTF-8"?> <svg xmlns:rdf="http://www.w3.org/1999/02/22-rdf-syntax-ns#" xmlns="http://www.w3.org/2000/svg" xmlns:cc="http://creativecommons.org/ns#" xmlns:dc="http://purl.org/dc/elements/1.1/" xmlns:svg="http://www.w3.org/2000/svg" xmlns:inkscape="http://www.inkscape.org/namespaces/inkscape" xmlns:sodipodi="http://sodipodi.sourceforge.net/DTD/sodipodi-0.dtd" xmlns:ns1="http://sozi.baierouge.fr" xmlns:xlink="http://www.w3.org/1999/xlink" id="svg2" viewBox="0 0 356.19 372.28"><title id="title3008">Box</title><g id="layer1" transform="translate(-4.7246 -6.2059)"><g id="g3726" stroke-width=".4" transform="matrix(3.788 0 0 3.788 718.75 727.69)" stroke-miterlimit="0" fill-rule="evenodd"><path id="path2800" stroke="#65392e" fill="#784a33" d="m-152.81-171.93 46 8.282-1.3793 17.269-44.391 7.0057-0.22989-32.557z"></path><path id="path2806" stroke="#b6906c" fill="#c79a71" d="m-144.48-190.26 44.276 7.3624-7.3565 20.028-45.286-9.1722 8.3666-18.218z"></path><path id="path2810" stroke="#835e44" fill="#835e44" d="m-178.33-162.05 25.186-9.8256 0.077 18.71-15.953 6.3161-9.3105-15.2z"></path><path id="path2808" stroke="#997556" fill="#be926b" d="m-188.33-180.55 24.965-9.1897 10.376 17.744-25.57 9.6348-9.7703-18.189z"></path><path id="rect1873" stroke="#cf9e76" fill="#c28955" d="m-178.69-162.6 49.563 11.845 0.0611 58.367-47.67-15.586-1.9541-54.627z"></path><path id="path2761" stroke="#b68659" fill="#8f5e39" d="m-129.16-150.73 23.011-11.363-1.2644 54.397-21.632 15.251-0.11494-58.285z"></path><path id="path2777" stroke="#946c50" fill="#734427" d="m-106.29-162.03-22.939 11.36 10.336-16.131 24.275-10.193-11.672 14.964z"></path><path id="path2775" stroke="#ab785a" fill="#a36937" d="m-129.26-150.73-49.502-11.868-9.3717-12.304 47.954 10.926 10.92 13.246z"></path></g></g><metadata></metadata></svg> 